<svg width="1065" height="1065" viewBox="0 0 1065 1065" fill="none" xmlns="http://www.w3.org/2000/svg">
<path fill-rule="evenodd" clip-rule="evenodd" d="M602.858 239.677L567.859 193.521C550.102 170.102 514.897 170.102 497.14 193.521L462.142 239.677C441.795 266.511 408.555 280.279 375.194 275.692L317.809 267.802C288.693 263.799 263.8 288.693 267.803 317.808L275.693 375.193C280.28 408.554 266.511 441.795 239.678 462.141L193.521 497.14C170.103 514.897 170.103 550.102 193.521 567.859L239.678 602.857C266.511 623.204 280.28 656.444 275.693 689.805L267.803 747.191C263.8 776.306 288.694 801.2 317.809 797.196L375.194 789.306C408.555 784.719 441.795 798.488 462.142 825.321L497.14 871.478C514.897 894.896 550.102 894.896 567.859 871.478L602.858 825.321C623.204 798.488 656.445 784.719 689.806 789.306L747.191 797.196C776.306 801.2 801.2 776.306 797.197 747.191L789.307 689.805C784.72 656.444 798.489 623.204 825.322 602.857L871.479 567.859C894.897 550.102 894.897 514.897 871.479 497.14L825.322 462.141C798.489 441.795 784.72 408.554 789.307 375.193L797.197 317.808C801.2 288.693 776.306 263.799 747.191 267.802L689.806 275.692C656.445 280.279 623.204 266.511 602.858 239.677ZM638.578 139.898C585.308 69.6434 479.692 69.6434 426.421 139.898L391.423 186.055C390.454 187.332 388.871 187.988 387.283 187.77L329.897 179.88C242.552 167.87 167.871 242.551 179.88 329.897L187.77 387.282C187.989 388.871 187.333 390.454 186.055 391.423L139.898 426.421C69.6439 479.692 69.6439 585.307 139.898 638.578L186.055 673.576C187.333 674.545 187.989 676.128 187.77 677.716L179.88 735.102C167.871 822.447 242.552 897.129 329.897 885.119L387.283 877.229C388.871 877.011 390.454 877.666 391.423 878.944L426.421 925.101C479.692 995.355 585.307 995.355 638.578 925.101L673.577 878.944C674.545 877.666 676.128 877.011 677.717 877.229L735.102 885.119C822.448 897.129 897.129 822.447 885.12 735.102L877.23 677.716C877.011 676.128 877.667 674.545 878.945 673.576L925.101 638.578C995.356 585.307 995.356 479.692 925.101 426.421L878.945 391.423C877.667 390.454 877.011 388.871 877.23 387.282L885.12 329.897C897.129 242.551 822.448 167.87 735.102 179.88L677.717 187.77C676.128 187.988 674.545 187.332 673.577 186.055L638.578 139.898Z" fill="white"/>
</svg>
