<svg width="403" height="275" viewBox="0 0 403 275" fill="none" xmlns="http://www.w3.org/2000/svg">
<path d="M402.354 258.803C402.354 267.226 395.526 274.055 387.103 274.055H15.252C6.82867 274.055 0.000244141 267.226 0.000244141 258.803V15.2519C0.000244141 6.82861 6.82867 0.000183105 15.2519 0.000183105H302.655C308.039 0.000183105 313.025 2.8392 315.772 7.46994L338.877 46.4149C340.89 49.8082 344.14 52.2894 347.944 53.3371L391.153 65.2383C397.77 67.0609 402.354 73.0789 402.354 79.9424V258.803Z" fill="#0C2630"/>
<path d="M401.854 258.803C401.854 266.95 395.25 273.555 387.103 273.555H15.252C7.10483 273.555 0.500244 266.95 0.500244 258.803V15.2519C0.500244 7.10477 7.10483 0.500183 15.2519 0.500183H302.655C307.863 0.500183 312.685 3.24612 315.342 7.72507L338.447 46.67C340.526 50.1746 343.883 52.7371 347.811 53.8192L391.02 65.7203C397.42 67.4832 401.854 73.3039 401.854 79.9424V258.803Z" stroke="white" stroke-opacity="0.2"/>
</svg>
