<svg width="32" height="32" viewBox="0 0 32 32" fill="none" xmlns="http://www.w3.org/2000/svg">
<path d="M17.3333 29.2672C16.8948 29.3107 16.45 29.333 16 29.333C15.55 29.333 15.1052 29.3107 14.6667 29.2672V18.6663H13.3333C12.597 18.6663 12 18.0694 12 17.333C12 16.5966 12.597 15.9997 13.3333 15.9997H14.6667V13.333C14.6667 11.1239 16.4575 9.33301 18.6667 9.33301H20C20.7364 9.33301 21.3333 9.92996 21.3333 10.6663C21.3333 11.4027 20.7364 11.9997 20 11.9997H18.6667C17.9303 11.9997 17.3333 12.5966 17.3333 13.333V15.9997H20C20.7364 15.9997 21.3333 16.5966 21.3333 17.333C21.3333 18.0694 20.7364 18.6663 20 18.6663H17.3333V29.2672Z" fill="white"/>
<path fill-rule="evenodd" clip-rule="evenodd" d="M15.9998 26.667C21.8909 26.667 26.6665 21.8914 26.6665 16.0003C26.6665 10.1093 21.8909 5.33366 15.9998 5.33366C10.1088 5.33366 5.33317 10.1093 5.33317 16.0003C5.33317 21.8914 10.1088 26.667 15.9998 26.667ZM15.9998 29.3337C23.3636 29.3337 29.3332 23.3641 29.3332 16.0003C29.3332 8.63653 23.3636 2.66699 15.9998 2.66699C8.63604 2.66699 2.6665 8.63653 2.6665 16.0003C2.6665 23.3641 8.63604 29.3337 15.9998 29.3337Z" fill="white"/>
</svg>
