<svg width="32" height="32" viewBox="0 0 32 32" fill="none" xmlns="http://www.w3.org/2000/svg">
<path fill-rule="evenodd" clip-rule="evenodd" d="M4 10.6667C4 6.98477 6.98477 4 10.6667 4H21.3333C25.0152 4 28 6.98477 28 10.6667V21.3333C28 25.0152 25.0152 28 21.3333 28H10.6667C6.98477 28 4 25.0152 4 21.3333V10.6667ZM10.6667 6.66667C8.45753 6.66667 6.66667 8.45753 6.66667 10.6667V21.3333C6.66667 23.5425 8.45753 25.3333 10.6667 25.3333H21.3333C23.5425 25.3333 25.3333 23.5425 25.3333 21.3333V10.6667C25.3333 8.45753 23.5425 6.66667 21.3333 6.66667H10.6667Z" fill="white"/>
<path fill-rule="evenodd" clip-rule="evenodd" d="M21.9998 11.3337C22.7362 11.3337 23.3332 10.7367 23.3332 10.0003C23.3332 9.26395 22.7362 8.66699 21.9998 8.66699C21.2635 8.66699 20.6665 9.26395 20.6665 10.0003C20.6665 10.7367 21.2635 11.3337 21.9998 11.3337ZM13.3332 16.0003C13.3332 14.5276 14.5271 13.3337 15.9998 13.3337C17.4726 13.3337 18.6665 14.5276 18.6665 16.0003C18.6665 17.4731 17.4726 18.667 15.9998 18.667C14.5271 18.667 13.3332 17.4731 13.3332 16.0003ZM15.9998 10.667C13.0543 10.667 10.6665 13.0548 10.6665 16.0003C10.6665 18.9458 13.0543 21.3337 15.9998 21.3337C18.9454 21.3337 21.3332 18.9458 21.3332 16.0003C21.3332 13.0548 18.9454 10.667 15.9998 10.667Z" fill="white"/>
</svg>
