<svg width="52" height="36" viewBox="0 0 52 36" fill="none" xmlns="http://www.w3.org/2000/svg">
<path d="M0.75 6C0.75 3.10051 3.10051 0.75 6 0.75H46C48.8995 0.75 51.25 3.10051 51.25 6V30C51.25 32.8995 48.8995 35.25 46 35.25H6C3.10051 35.25 0.75 32.8995 0.75 30V6Z" fill="white"/>
<path d="M0.75 6C0.75 3.10051 3.10051 0.75 6 0.75H46C48.8995 0.75 51.25 3.10051 51.25 6V30C51.25 32.8995 48.8995 35.25 46 35.25H6C3.10051 35.25 0.75 32.8995 0.75 30V6Z" stroke="#E1E1E2" stroke-width="1.5"/>
<g clip-path="url(#clip0_2006_198)">
<path fill-rule="evenodd" clip-rule="evenodd" d="M25.7683 25.2442C23.9923 26.7412 21.6885 27.6449 19.171 27.6449C13.5537 27.6449 9 23.1454 9 17.5949C9 12.0445 13.5537 7.54492 19.171 7.54492C21.6885 7.54492 23.9923 8.44862 25.7683 9.94562C27.5444 8.44862 29.8482 7.54492 32.3656 7.54492C37.9829 7.54492 42.5367 12.0445 42.5367 17.5949C42.5367 23.1454 37.9829 27.6449 32.3656 27.6449C29.8482 27.6449 27.5444 26.7412 25.7683 25.2442Z" fill="#ED0006"/>
<path fill-rule="evenodd" clip-rule="evenodd" d="M25.7686 25.2439C27.9553 23.4005 29.3419 20.6577 29.3419 17.5949C29.3419 14.5321 27.9553 11.7893 25.7686 9.94594C27.5447 8.44875 29.8486 7.54492 32.3662 7.54492C37.9835 7.54492 42.5373 12.0445 42.5373 17.5949C42.5373 23.1454 37.9835 27.6449 32.3662 27.6449C29.8486 27.6449 27.5447 26.7411 25.7686 25.2439Z" fill="#F9A000"/>
<path fill-rule="evenodd" clip-rule="evenodd" d="M25.7681 25.2439C27.9551 23.4006 29.3418 20.6576 29.3418 17.5946C29.3418 14.5316 27.9551 11.7887 25.7681 9.94531C23.5811 11.7887 22.1943 14.5316 22.1943 17.5946C22.1943 20.6576 23.5811 23.4006 25.7681 25.2439Z" fill="#FF5E00"/>
</g>
<defs>
<clipPath id="clip0_2006_198">
<rect width="33.5375" height="20.1" fill="white" transform="translate(9 7.54492)"/>
</clipPath>
</defs>
</svg>
