<svg width="52" height="36" viewBox="0 0 52 36" fill="none" xmlns="http://www.w3.org/2000/svg">
<path d="M0.75 6C0.75 3.10051 3.10051 0.75 6 0.75H46C48.8995 0.75 51.25 3.10051 51.25 6V30C51.25 32.8995 48.8995 35.25 46 35.25H6C3.10051 35.25 0.75 32.8995 0.75 30V6Z" fill="white"/>
<path d="M0.75 6C0.75 3.10051 3.10051 0.75 6 0.75H46C48.8995 0.75 51.25 3.10051 51.25 6V30C51.25 32.8995 48.8995 35.25 46 35.25H6C3.10051 35.25 0.75 32.8995 0.75 30V6Z" stroke="#E1E1E2" stroke-width="1.5"/>
<g clip-path="url(#clip0_2006_211)">
<path d="M28.8864 17.5586C28.8864 23.1139 24.4347 27.6173 18.9432 27.6173C13.4517 27.6173 9 23.1139 9 17.5586C9 12.0034 13.4517 7.5 18.9432 7.5C24.4347 7.5 28.8864 12.0034 28.8864 17.5586Z" fill="#ED0006"/>
<path d="M41.7858 17.5586C41.7858 23.1139 37.3341 27.6173 31.8426 27.6173C26.3511 27.6173 21.8994 23.1139 21.8994 17.5586C21.8994 12.0034 26.3511 7.5 31.8426 7.5C37.3341 7.5 41.7858 12.0034 41.7858 17.5586Z" fill="#0099DF"/>
<path fill-rule="evenodd" clip-rule="evenodd" d="M25.3929 25.2148C27.5308 23.3698 28.8865 20.6246 28.8865 17.559C28.8865 14.4935 27.5308 11.7483 25.3929 9.90332C23.255 11.7483 21.8994 14.4935 21.8994 17.559C21.8994 20.6246 23.255 23.3698 25.3929 25.2148Z" fill="#6C6BBD"/>
</g>
<defs>
<clipPath id="clip0_2006_211">
<rect width="32.7856" height="20.1173" fill="white" transform="translate(9 7.5)"/>
</clipPath>
</defs>
</svg>
