<svg width="52" height="36" viewBox="0 0 52 36" fill="none" xmlns="http://www.w3.org/2000/svg">
<path d="M0.75 6C0.75 3.10051 3.10051 0.75 6 0.75H46C48.8995 0.75 51.25 3.10051 51.25 6V30C51.25 32.8995 48.8995 35.25 46 35.25H6C3.10051 35.25 0.75 32.8995 0.75 30V6Z" fill="white"/>
<path d="M0.75 6C0.75 3.10051 3.10051 0.75 6 0.75H46C48.8995 0.75 51.25 3.10051 51.25 6V30C51.25 32.8995 48.8995 35.25 46 35.25H6C3.10051 35.25 0.75 32.8995 0.75 30V6Z" stroke="#E1E1E2" stroke-width="1.5"/>
<path fill-rule="evenodd" clip-rule="evenodd" d="M16.5753 23.7731H13.4857L11.1688 14.6743C11.0589 14.2558 10.8254 13.8857 10.4819 13.7113C9.62478 13.2731 8.68027 12.9243 7.6499 12.7484V12.3981H12.627C13.3139 12.3981 13.8291 12.9243 13.915 13.5354L15.1171 20.0987L18.2052 12.3981H21.2089L16.5753 23.7731ZM22.9259 23.7731H20.0081L22.4108 12.398H25.3286L22.9259 23.7731ZM29.1037 15.5493C29.1895 14.9367 29.7047 14.5864 30.3058 14.5864C31.2503 14.4984 32.2792 14.6743 33.1378 15.1111L33.653 12.662C32.7943 12.3117 31.8498 12.1357 30.9927 12.1357C28.1607 12.1357 26.0999 13.7114 26.0999 15.8981C26.0999 17.5617 27.5596 18.4352 28.59 18.9614C29.7047 19.4861 30.1341 19.8364 30.0482 20.3611C30.0482 21.1481 29.1895 21.4984 28.3324 21.4984C27.302 21.4984 26.2717 21.2361 25.3287 20.7978L24.8135 23.2484C25.8438 23.6852 26.9586 23.8611 27.989 23.8611C31.1644 23.9475 33.1378 22.3734 33.1378 20.0108C33.1378 17.0355 29.1037 16.8611 29.1037 15.5493ZM43.3502 23.7731L41.0334 12.398H38.5448C38.0296 12.398 37.5144 12.7483 37.3427 13.273L33.0525 23.7731H36.0562L36.6558 22.111H40.3464L40.6899 23.7731H43.3502ZM38.9735 15.4614L39.8307 19.7485H37.428L38.9735 15.4614Z" fill="#172B85"/>
</svg>
