<svg width="32" height="32" viewBox="0 0 32 32" fill="none" xmlns="http://www.w3.org/2000/svg">
<g clip-path="url(#clip0_2006_227)">
<path d="M19.2382 22.6331L19.2267 22.6612C19.1996 22.7269 19.1873 22.8258 19.1889 22.9659C19.1903 23.0854 19.2012 23.22 19.2133 23.3707C19.2153 23.3943 19.2172 23.4183 19.2191 23.4427C19.2472 23.7952 19.2745 24.2186 19.1759 24.622C19.0754 25.0333 18.8444 25.423 18.3662 25.7052C17.8947 25.9835 17.195 26.15 16.169 26.15C11.6456 26.15 8.06422 22.6414 5.62662 18.8758C4.40452 16.9879 3.46191 15.0237 2.82453 13.3766C2.50581 12.553 2.26286 11.8073 2.09937 11.1888C1.93677 10.5736 1.85 10.0742 1.85 9.7472C1.85 9.16791 2.03513 8.68857 2.39053 8.35489C2.74471 8.02237 3.25015 7.8512 3.85965 7.8512H6.73078C7.43356 7.8512 7.92485 8.07597 8.2798 8.43252C8.62888 8.78318 8.83437 9.24995 8.9925 9.71181L8.99303 9.71334L8.99302 9.71334C9.99158 12.7356 11.3595 15.1578 12.2564 16.3127C12.2045 15.1484 12.2383 14.2895 12.2647 13.6199C12.2752 13.3526 12.2845 13.1155 12.2867 12.901C12.291 12.4901 12.2693 12.1662 12.1863 11.8648C12.104 11.5657 11.9587 11.2805 11.7047 10.9527C11.0728 10.1393 11.0318 9.36133 11.3375 8.77843C11.6379 8.20558 12.2602 7.85 12.8954 7.85H17.408C17.8971 7.85 18.2728 7.96832 18.5539 8.19142C18.8341 8.41383 19.0034 8.72711 19.1055 9.08556C19.2876 9.72476 19.2665 10.5543 19.2455 11.3795C19.2433 11.4658 19.2411 11.5521 19.2391 11.6381L19.2382 22.6331ZM19.2382 22.6331L19.238 22.6028L19.2379 22.5952C19.2341 22.1384 19.2305 21.7016 19.2389 21.38M19.2382 22.6331L19.2389 21.38M19.2389 21.38C19.5411 21.5291 20.1123 21.9166 21.103 22.907C21.5824 23.4047 21.9728 23.8522 22.3146 24.2455L22.3518 24.2883C22.6769 24.6625 22.9616 24.9902 23.2363 25.2596C23.8135 25.8258 24.3625 26.15 25.1942 26.15H28.0654C29.0262 26.15 29.5438 25.7371 29.8071 25.3755L29.8072 25.3754C30.0614 25.0259 30.2961 24.4265 30.0378 23.5205L30.0378 23.5205L30.0368 23.5172C29.8696 22.9771 29.505 22.3505 29.0587 21.7153C28.6106 21.0776 28.0726 20.421 27.5494 19.8196C27.026 19.2181 26.5157 18.6699 26.1227 18.2495C26.0969 18.2219 26.0717 18.1949 26.0469 18.1685C25.8829 17.9931 25.7429 17.8434 25.6345 17.7245C25.5573 17.6398 25.5005 17.5754 25.4631 17.5303C25.4884 17.486 25.5153 17.4417 25.5336 17.4115L25.5415 17.3984C25.9239 16.8749 26.8001 15.5551 27.6359 14.1482C28.0607 13.4332 28.4763 12.6938 28.812 12.0232C29.1442 11.3597 29.4033 10.7538 29.5124 10.3031C29.5146 10.2963 29.5165 10.2888 29.518 10.2807C29.7506 9.44799 29.5357 8.89016 29.2983 8.56547L29.298 8.5651C28.9425 8.08198 28.3821 7.85 27.6617 7.85H24.7906C23.7666 7.85 22.9835 8.38649 22.5924 9.34998L22.5913 9.35283C22.2861 10.151 21.7021 11.3773 21.0319 12.5507C20.444 13.5801 19.798 14.5541 19.2235 15.1636C19.1951 13.672 19.2196 12.5152 19.2391 11.6382L19.2389 21.38ZM27.4795 9.95C27.3896 10.2411 27.2097 10.6444 26.9674 11.1177C26.6761 11.6867 26.3024 12.3425 25.9088 12.9997C25.1221 14.313 24.2601 15.6248 23.8283 16.2459C23.8117 16.2688 23.7969 16.2923 23.785 16.3113L23.784 16.3129L23.7839 16.3129L23.782 16.3161C23.5897 16.6391 23.4008 17.0014 23.3655 17.4194C23.3296 17.8442 23.4535 18.3058 23.8433 18.8274L23.8883 18.8876H23.8944C23.9839 18.9922 24.1436 19.1686 24.3557 19.3946L24.3559 19.3948L24.379 19.4194C24.7884 19.8539 25.6513 20.77 26.4471 21.7219C26.8527 22.2072 27.239 22.6994 27.5382 23.1404C27.7805 23.4975 27.9575 23.8093 28.0462 24.051C27.9694 24.0523 27.8554 24.0526 27.6756 24.0522C27.6042 24.0521 27.5228 24.0519 27.4296 24.0517C26.9969 24.0505 26.3101 24.0487 25.1939 24.0512L25.1942 24.2012M27.4795 9.95L28.0917 24.2C27.9829 24.2031 27.7984 24.2026 27.4291 24.2017C26.9964 24.2005 26.31 24.1987 25.1942 24.2012M27.4795 9.95H24.7906C24.6614 9.95 24.6126 9.96833 24.5872 9.98623C24.561 10.0047 24.5335 10.0405 24.4912 10.1449C24.427 10.3078 22.9402 14.0365 20.7848 16.5387L20.7795 16.5449L20.7793 16.5447C19.7567 17.6093 18.8659 17.9547 18.1998 17.7386C17.529 17.521 17.1932 16.7725 17.1927 15.9066C17.1751 15.3094 17.1728 13.7888 17.1746 12.4175C17.1755 11.7302 17.1774 11.0795 17.1789 10.5993L17.1807 10.0237L17.1809 9.95462L13.536 9.95035C13.8688 10.4262 14.2607 11.1663 14.3273 12.4382L14.3277 12.446H14.3275L14.3287 16.8884V16.8884V16.8951C14.3287 17.1727 14.3287 17.7061 14.1423 18.1733C14.0472 18.4115 13.901 18.6398 13.6754 18.8083C13.4484 18.9779 13.1522 19.0784 12.7729 19.0784C12.2409 19.0784 11.6923 18.719 11.1655 18.1792C10.6326 17.6333 10.0943 16.874 9.58277 16.013C8.55933 14.2902 7.6292 12.1357 7.05527 10.3974C7.00837 10.2605 6.97319 10.1626 6.94284 10.0912C6.9117 10.018 6.89074 9.98526 6.87699 9.96996C6.87628 9.96916 6.87565 9.96838 6.87503 9.96762C6.86735 9.95815 6.86171 9.9512 6.73087 9.9512C6.01128 9.95163 5.43581 9.95145 4.99023 9.95131C4.80945 9.95125 4.65005 9.9512 4.51108 9.9512C4.27021 9.9512 4.09088 9.95135 3.96782 9.95187C3.95387 9.95193 3.94066 9.952 3.92818 9.95207C4.01393 10.553 4.33456 11.6436 4.87553 12.972C5.46619 14.4224 6.31327 16.141 7.38413 17.7868C9.53381 21.0908 12.5504 24.05 16.169 24.05C16.7456 24.05 17.0443 24.0029 17.1903 23.9661M27.4795 9.95L17.1903 23.9661M25.1942 24.2012C24.8216 24.2012 24.5015 23.8315 23.8584 23.089C23.5048 22.6807 23.0535 22.1596 22.4421 21.5252C20.8928 19.9748 19.8871 19.3412 18.9713 19.3412C17.2972 19.3412 17.3142 20.6572 17.3355 22.3095C17.3369 22.4121 17.3382 22.5159 17.3392 22.6208M25.1942 24.2012V24.0512C25.0925 24.0512 24.9868 24.0134 24.8521 23.9139C24.7148 23.8125 24.5591 23.6556 24.3594 23.4334C24.2456 23.3068 24.1187 23.1603 23.975 22.9945C23.6208 22.5854 23.1644 22.0585 22.5501 21.4211L22.5501 21.4211L22.5482 21.4192C21.7706 20.641 21.1226 20.0859 20.5491 19.7249C19.9742 19.363 19.4662 19.1912 18.9713 19.1912C18.5067 19.1912 18.1481 19.2882 17.8776 19.4785C17.6059 19.6697 17.4402 19.943 17.3393 20.2627C17.2393 20.5799 17.2009 20.9498 17.1874 21.3459C17.177 21.6499 17.1812 21.977 17.1856 22.314C17.1869 22.4158 17.1882 22.5185 17.1892 22.6217M17.3392 22.6208L17.1892 22.6213C17.1892 22.6214 17.1892 22.6215 17.1892 22.6217M17.3392 22.6208L17.1892 22.6222C17.1892 22.622 17.1892 22.6218 17.1892 22.6217M17.3392 22.6208L17.1892 22.6217M17.1892 22.6217C17.1916 23.4469 17.191 23.8111 17.1903 23.9661M17.1892 22.6217L17.1903 23.9661M3.76598 9.86356C3.76383 9.84333 3.762 9.82374 3.76048 9.8048L3.76598 9.86356ZM23.9109 16.3928C23.5294 17.0336 23.2191 17.7416 23.9634 18.7376H23.9646L23.9109 16.3928Z" fill="white" stroke="white" stroke-width="0.3"/>
</g>
<defs>
<clipPath id="clip0_2006_227">
<rect width="32" height="32" fill="white"/>
</clipPath>
</defs>
</svg>
