<svg width="32" height="32" viewBox="0 0 32 32" fill="none" xmlns="http://www.w3.org/2000/svg">
<path fill-rule="evenodd" clip-rule="evenodd" d="M15.9998 7.99967C12.6008 7.99967 9.74679 8.12954 7.6331 8.27279C6.52419 8.34794 5.63294 9.22262 5.55569 10.4107C5.43627 12.2472 5.33317 14.3268 5.33317 15.9997C5.33317 17.6726 5.43627 19.7521 5.55569 21.5886C5.63294 22.7767 6.52419 23.6514 7.6331 23.7266C9.74679 23.8698 12.6008 23.9997 15.9998 23.9997C19.3989 23.9997 22.2529 23.8698 24.3666 23.7266C25.4755 23.6514 26.3667 22.7767 26.444 21.5886C26.5634 19.7521 26.6665 17.6726 26.6665 15.9997C26.6665 14.3268 26.5634 12.2472 26.444 10.4107C26.3667 9.22262 25.4755 8.34794 24.3666 8.27279C22.2529 8.12954 19.3989 7.99967 15.9998 7.99967ZM7.45279 5.61222C4.97116 5.78041 3.05604 7.75559 2.89464 10.2377C2.77413 12.091 2.6665 14.2391 2.6665 15.9997C2.6665 17.7603 2.77413 19.9083 2.89464 21.7617C3.05604 24.2438 4.97116 26.2189 7.45279 26.3871C9.61894 26.5339 12.5335 26.6663 15.9998 26.6663C19.4661 26.6663 22.3807 26.5339 24.5469 26.3871C27.0285 26.2189 28.9436 24.2438 29.105 21.7617C29.2255 19.9083 29.3332 17.7603 29.3332 15.9997C29.3332 14.2391 29.2255 12.091 29.105 10.2377C28.9436 7.75559 27.0285 5.78041 24.5469 5.61222C22.3807 5.46542 19.4661 5.33301 15.9998 5.33301C12.5335 5.33301 9.61894 5.46542 7.45279 5.61222Z" fill="white"/>
<path d="M13.3335 13.3356C13.3335 12.2725 14.5166 11.637 15.4029 12.2238L19.3941 14.8665C20.2064 15.4043 20.2063 16.5967 19.394 17.1344L15.4029 19.7768C14.5165 20.3636 13.3335 19.728 13.3335 18.665V13.3356Z" fill="white"/>
</svg>
