<svg width="290" height="290" viewBox="0 0 290 290" fill="none" xmlns="http://www.w3.org/2000/svg">
<g filter="url(#filter0_d_438_4496)">
<path fill-rule="evenodd" clip-rule="evenodd" d="M145.258 19.0468C124.146 2.6533 93.2172 10.9406 83.13 35.694L76.5028 51.9568C76.3193 52.407 75.9072 52.7232 75.4248 52.7839L58.001 54.9761C31.4803 58.313 15.4705 86.0428 25.841 110.679L32.6544 126.864C32.843 127.313 32.7752 127.828 32.4771 128.211L21.7067 142.082C5.31323 163.195 13.6005 194.123 38.3539 204.21L54.6167 210.838C55.0669 211.021 55.3831 211.433 55.4438 211.916L57.6361 229.339C60.9729 255.86 88.7027 271.87 113.339 261.499L129.524 254.686C129.972 254.497 130.487 254.565 130.871 254.863L144.742 265.634C165.855 282.027 196.783 273.74 206.87 248.987L213.498 232.724C213.681 232.274 214.093 231.957 214.576 231.897L231.999 229.704C258.52 226.368 274.53 198.638 264.159 174.002L257.346 157.816C257.157 157.368 257.225 156.853 257.523 156.469L268.294 142.598C284.687 121.486 276.4 90.5572 251.647 80.47L235.384 73.8428C234.934 73.6593 234.617 73.2473 234.557 72.7649L232.364 55.341C229.028 28.8203 201.298 12.8105 176.662 23.1811L160.476 29.9945C160.028 30.1831 159.513 30.1153 159.129 29.8171L145.258 19.0468Z" fill="#DE703C"/>
<path d="M85.5267 36.6707C94.9671 13.5046 123.912 5.74874 143.671 21.091L157.542 31.8613C158.664 32.7331 160.17 32.9313 161.48 32.3798L177.666 25.5665C200.722 15.8609 226.674 30.8441 229.797 55.6641L231.989 73.088C232.166 74.4983 233.091 75.7032 234.407 76.2395L250.67 82.8668C273.836 92.3071 281.592 121.252 266.25 141.011L255.479 154.882C254.607 156.004 254.409 157.51 254.961 158.82L261.774 175.006C271.48 198.062 256.496 224.014 231.676 227.137L214.252 229.329C212.842 229.506 211.637 230.431 211.101 231.747L204.474 248.01C195.033 271.176 166.088 278.932 146.329 263.59L132.459 252.819C131.336 251.948 129.83 251.749 128.52 252.301L112.335 259.114C89.2784 268.82 63.3268 253.836 60.2039 229.016L58.0116 211.593C57.8342 210.182 56.9097 208.977 55.5934 208.441L39.3306 201.814C16.1645 192.373 8.40867 163.428 23.7509 143.669L34.5213 129.799C35.393 128.676 35.5912 127.17 35.0398 125.86L28.2264 109.675C18.5209 86.6185 33.504 60.6668 58.3241 57.544L75.7479 55.3517C77.1582 55.1743 78.3631 54.2498 78.8995 52.9334L85.5267 36.6707Z" stroke="white" stroke-width="5.17619"/>
</g>
<defs>
<filter id="filter0_d_438_4496" x="0.257523" y="0.475903" width="289.485" height="289.486" filterUnits="userSpaceOnUse" color-interpolation-filters="sRGB">
<feFlood flood-opacity="0" result="BackgroundImageFix"/>
<feColorMatrix in="SourceAlpha" type="matrix" values="0 0 0 0 0 0 0 0 0 0 0 0 0 0 0 0 0 0 127 0" result="hardAlpha"/>
<feOffset dy="2.87854"/>
<feGaussianBlur stdDeviation="6.47671"/>
<feComposite in2="hardAlpha" operator="out"/>
<feColorMatrix type="matrix" values="0 0 0 0 0 0 0 0 0 0 0 0 0 0 0 0 0 0 0.25 0"/>
<feBlend mode="normal" in2="BackgroundImageFix" result="effect1_dropShadow_438_4496"/>
<feBlend mode="normal" in="SourceGraphic" in2="effect1_dropShadow_438_4496" result="shape"/>
</filter>
</defs>
</svg>
