<svg width="265" height="265" viewBox="0 0 265 265" fill="none" xmlns="http://www.w3.org/2000/svg">
<g filter="url(#filter0_d_393_5011)">
<path fill-rule="evenodd" clip-rule="evenodd" d="M132.562 18.7873C113.622 4.08032 85.8749 11.515 76.8254 33.7218L70.88 48.3115C70.7154 48.7154 70.3457 48.9991 69.913 49.0535L54.2817 51.0203C30.4894 54.0138 16.1266 78.8908 25.4303 100.992L31.5427 115.513C31.7119 115.915 31.6511 116.377 31.3836 116.721L21.7213 129.165C7.01436 148.105 14.4491 175.852 36.6559 184.902L51.2456 190.847C51.6494 191.012 51.9331 191.381 51.9876 191.814L53.9543 207.445C56.9479 231.238 81.8248 245.6 103.926 236.297L118.447 230.184C118.849 230.015 119.311 230.076 119.655 230.343L132.099 240.006C151.039 254.713 178.786 247.278 187.836 225.071L193.781 210.481C193.946 210.078 194.315 209.794 194.748 209.739L210.379 207.773C234.172 204.779 248.534 179.902 239.231 157.801L233.118 143.28C232.949 142.878 233.01 142.416 233.277 142.072L242.94 129.628C257.647 110.687 250.212 82.9408 228.005 73.8914L213.416 67.946C213.012 67.7814 212.728 67.4117 212.674 66.9789L210.707 51.3476C207.713 27.5553 182.836 13.1926 160.735 22.4963L146.214 28.6087C145.812 28.7779 145.35 28.7171 145.006 28.4496L132.562 18.7873Z" fill="#081D24"/>
<path d="M210.37 67.2688L212.674 66.9789L210.37 67.2688C210.529 68.534 211.358 69.6149 212.539 70.0961L227.129 76.0415C247.912 84.5107 254.87 110.478 241.106 128.204L231.444 140.648C230.661 141.655 230.484 143.006 230.978 144.181L233.118 143.28L230.978 144.181L237.091 158.701C245.798 179.386 232.356 202.667 210.09 205.469L194.458 207.436L194.748 209.739L194.458 207.436C193.193 207.595 192.112 208.424 191.631 209.605L185.685 224.195C177.216 244.978 151.249 251.936 133.523 238.172L121.079 228.51C120.072 227.727 118.721 227.55 117.546 228.044L118.447 230.184L117.546 228.044L103.026 234.157C82.3413 242.864 59.0596 229.422 56.258 207.155L54.2912 191.524C54.1321 190.259 53.3027 189.178 52.1218 188.697L37.5321 182.751C16.7493 174.282 9.79134 148.315 23.5552 130.589L33.2175 118.145C33.9996 117.138 34.1774 115.787 33.6827 114.612L27.5703 100.091C18.8632 79.4073 32.3049 56.1255 54.5715 53.3239L70.2028 51.3572C71.468 51.198 72.5489 50.3686 73.0302 49.1877L78.9756 34.598C87.4447 13.8153 113.412 6.85731 131.138 20.6211L143.582 30.2834C144.589 31.0656 145.94 31.2434 147.115 30.7486L161.636 24.6362C182.32 15.9292 205.602 29.3709 208.403 51.6375L210.37 67.2688Z" stroke="white" stroke-width="4.64367"/>
</g>
<defs>
<filter id="filter0_d_393_5011" x="0.0290232" y="0.222226" width="264.603" height="264.602" filterUnits="userSpaceOnUse" color-interpolation-filters="sRGB">
<feFlood flood-opacity="0" result="BackgroundImageFix"/>
<feColorMatrix in="SourceAlpha" type="matrix" values="0 0 0 0 0 0 0 0 0 0 0 0 0 0 0 0 0 0 127 0" result="hardAlpha"/>
<feOffset dy="3.1268"/>
<feGaussianBlur stdDeviation="7.03529"/>
<feComposite in2="hardAlpha" operator="out"/>
<feColorMatrix type="matrix" values="0 0 0 0 0 0 0 0 0 0 0 0 0 0 0 0 0 0 0.25 0"/>
<feBlend mode="normal" in2="BackgroundImageFix" result="effect1_dropShadow_393_5011"/>
<feBlend mode="normal" in="SourceGraphic" in2="effect1_dropShadow_393_5011" result="shape"/>
</filter>
</defs>
</svg>
