<svg width="46" height="46" viewBox="0 0 46 46" fill="none" xmlns="http://www.w3.org/2000/svg">
<path fill-rule="evenodd" clip-rule="evenodd" d="M26.0386 10.3531L24.5269 8.35953C23.7599 7.34804 22.2393 7.34804 21.4724 8.35953L19.9607 10.3531C19.0819 11.5121 17.6462 12.1069 16.2052 11.9087L13.7266 11.5679C12.469 11.395 11.3938 12.4703 11.5667 13.7278L11.9075 16.2064C12.1056 17.6474 11.5109 19.0831 10.3519 19.9619L8.35831 21.4736C7.34682 22.2406 7.34682 23.7612 8.35831 24.5281L10.3519 26.0398C11.5109 26.9186 12.1056 28.3543 11.9075 29.7953L11.5667 32.2739C11.3938 33.5315 12.469 34.6067 13.7266 34.4338L16.2052 34.093C17.6462 33.8949 19.0819 34.4896 19.9607 35.6486L21.4724 37.6422C22.2393 38.6537 23.7599 38.6537 24.5269 37.6422L26.0386 35.6486C26.9174 34.4896 28.3531 33.8949 29.7941 34.093L32.2727 34.4338C33.5302 34.6067 34.6055 33.5315 34.4326 32.2739L34.0918 29.7953C33.8937 28.3543 34.4884 26.9186 35.6474 26.0398L37.641 24.5281C38.6525 23.7612 38.6525 22.2406 37.641 21.4736L35.6474 19.9619C34.4884 19.0831 33.8937 17.6474 34.0918 16.2064L34.4326 13.7278C34.6055 12.4703 33.5302 11.395 32.2727 11.5679L29.7941 11.9087C28.3531 12.1069 26.9174 11.5121 26.0386 10.3531ZM27.5814 6.04343C25.2805 3.00896 20.7187 3.00896 18.4178 6.04343L16.9062 8.03705C16.8643 8.09224 16.796 8.12056 16.7273 8.11113L14.2487 7.77033C10.4761 7.25161 7.25039 10.4773 7.76911 14.25L8.1099 16.7286C8.11934 16.7972 8.09102 16.8656 8.03583 16.9074L6.04221 18.4191C3.00774 20.72 3.00774 25.2818 6.04221 27.5826L8.03583 29.0943C8.09102 29.1362 8.11934 29.2045 8.1099 29.2731L7.76911 31.7518C7.25039 35.5244 10.4761 38.7501 14.2487 38.2314L16.7273 37.8906C16.796 37.8812 16.8643 37.9095 16.9062 37.9647L18.4179 39.9583C20.7187 42.9928 25.2805 42.9928 27.5814 39.9583L29.0931 37.9647C29.1349 37.9095 29.2033 37.8812 29.2719 37.8906L31.7505 38.2314C35.5232 38.7501 38.7489 35.5244 38.2302 31.7518L37.8894 29.2731C37.8799 29.2045 37.9083 29.1362 37.9635 29.0943L39.9571 27.5826C42.9915 25.2818 42.9915 20.72 39.9571 18.4191L37.9635 16.9074C37.9083 16.8656 37.8799 16.7972 37.8894 16.7286L38.2302 14.25C38.7489 10.4773 35.5232 7.25161 31.7505 7.77033L29.2719 8.11113C29.2033 8.12056 29.1349 8.09224 29.0931 8.03705L27.5814 6.04343Z" fill="#F7FAFC"/>
</svg>
