<svg width="152" height="30" viewBox="0 0 152 30" fill="none" xmlns="http://www.w3.org/2000/svg">
<g clip-path="url(#clip0_2006_145)">
<mask id="mask0_2006_145" style="mask-type:luminance" maskUnits="userSpaceOnUse" x="47" y="4" width="106" height="20">
<path fill-rule="evenodd" clip-rule="evenodd" d="M47.375 4.9668H152.536V23.9467H47.375V4.9668Z" fill="white"/>
</mask>
<g mask="url(#mask0_2006_145)">
<path fill-rule="evenodd" clip-rule="evenodd" d="M77.0817 16.0063V18.9797C76.5478 20.4948 75.2238 21.5674 73.6741 21.5674C71.6537 21.5674 70.0156 19.7435 70.0156 17.4933C70.0156 15.2436 71.6537 13.4192 73.6741 13.4192C75.2238 13.4192 76.5478 14.4918 77.0817 16.0063ZM95.954 13.838H99.7439V11.5101H95.954V7.35718H93.1406V19.5192C93.1406 22.2066 94.63 24.5177 99.0923 23.3365V21.0175C96.8654 21.7318 95.954 20.8891 95.954 19.5192V13.838ZM47.375 23.48C47.71 16.9741 48.3162 11.1681 49.6264 4.9668H52.9917L56.6095 18.6021L60.2273 4.9668H63.592C64.9022 11.1681 65.509 16.9741 65.844 23.48H63.0169C62.818 18.5597 62.4185 13.9851 61.6105 9.4243L58.4101 21.5588H54.8083L51.6086 9.4243C50.8005 13.9851 50.4004 18.5597 50.2021 23.48H47.375ZM89.7047 14.7437C88.3455 12.6876 84.0152 12.9915 84.3622 14.7766C84.5097 15.5314 86.0594 15.8557 87.2855 16.128C89.6999 16.6655 92.0666 17.6772 92.0666 19.9358C92.0666 22.3944 89.6683 23.7017 87.4969 23.9119C84.4714 24.2052 81.6174 22.6435 80.7969 19.5763L83.2203 18.9289C83.6784 20.6417 85.5781 21.5566 87.2329 21.5566C90.272 21.5566 90.2368 19.3517 86.6811 18.561C84.2021 18.0092 81.673 17.1146 81.673 14.8004C81.673 12.2056 84.576 11.0769 86.7683 11.0769C88.5193 11.0769 90.3873 11.701 91.605 13.1528L89.7047 14.7437ZM102.773 15.9109H109.162C108.679 14.3367 107.43 13.374 105.967 13.374C104.504 13.374 103.257 14.3367 102.773 15.9109ZM105.964 11.1047C109.322 11.1047 112.045 13.9653 112.045 17.4936C112.045 17.7354 112.031 17.9731 112.007 18.2084H102.624C103.311 22.3166 107.97 22.6235 109.497 19.0547L111.879 20.3566C110.791 22.4474 108.551 23.8824 105.964 23.8824C102.605 23.8824 99.8828 21.0218 99.8828 17.4936C99.8828 13.9653 102.605 11.1047 105.964 11.1047ZM113.742 23.4807H116.556V16.7407C116.556 14.2175 118.319 13.0607 120.536 14.2969L121.806 11.683C120.189 10.7537 117.878 10.8636 116.556 12.5005V11.5068H113.742V23.4807ZM141.843 5.61458C142.805 5.61458 143.584 6.39392 143.584 7.35601C143.584 8.3175 142.805 9.09745 141.843 9.09745C140.881 9.09745 140.102 8.3175 140.102 7.35601C140.102 6.39392 140.881 5.61458 141.843 5.61458ZM148.743 19.5192V13.838H152.534V11.5101H148.743V7.35718H145.93V19.5192C145.93 22.2066 147.42 24.5177 151.883 23.3365V21.0175C149.655 21.7318 148.743 20.8891 148.743 19.5192ZM140.438 23.4806H143.251V11.5073H140.438V23.4806ZM125.742 23.48H128.556V16.82C129.464 15.8741 130.343 14.9203 131.203 13.9517L136.264 23.48H139.45L133.176 11.6674C134.96 9.54254 136.688 7.32992 138.45 4.9668H134.941C132.867 7.7384 130.783 10.3177 128.556 12.762V4.9668H125.742V23.48ZM77.0754 23.4805H79.8888V11.5067H77.0754V12.9793C76.0279 11.8214 74.5803 11.1047 72.981 11.1047C69.7854 11.1047 67.1953 13.9653 67.1953 17.4936C67.1953 21.0218 69.7854 23.8824 72.981 23.8824C74.5803 23.8824 76.0279 23.1658 77.0754 22.0078V23.4805Z" fill="white"/>
</g>
<g clip-path="url(#clip1_2006_145)">
<path d="M36.7109 21.5377C36.7557 21.4279 36.7777 21.3652 36.7777 21.3652L36.7109 21.5377Z" fill="#6D6E6E"/>
<path d="M8.70904 15.8356C7.39549 15.9969 6.80134 15.4788 6.44667 15.0979C6.31012 14.9599 6.19845 14.7989 6.11668 14.6222C5.75105 15.594 6.02528 16.682 6.67245 17.2039C7.95217 18.2403 11.7667 16.5917 14.5976 14.8388C14.0976 14.5373 13.5619 14.2367 13.0135 13.9629C11.8983 14.7144 9.99151 15.6788 8.70904 15.8356Z" fill="url(#paint0_linear_2006_145)"/>
<path d="M14.5981 14.8417L14.6219 14.8555C15.6385 15.4745 16.6191 16.1518 17.5588 16.8841L17.642 16.9505C12.7288 11.9944 8.74152 8.74414 4.98187 8.74414C1.22222 8.74414 0.015625 13.1839 0.015625 15.0593C0.015625 19.7922 2.74235 21.2519 4.40325 21.2519C6.06415 21.2519 7.93804 20.0384 9.08065 19.2086C10.0861 18.4709 13.7635 15.5157 14.5981 14.8417C11.7644 16.5936 7.93895 18.2008 6.65831 17.1644C6.00931 16.6388 5.77987 15.5637 6.12357 14.6121C6.47367 13.6421 7.41883 12.8003 9.12635 12.8003C10.2982 12.8003 11.6858 13.2991 12.9884 13.951" fill="url(#paint1_linear_2006_145)"/>
<path d="M15.25 12.4092L15.2778 12.4363L15.25 12.4092Z" fill="#49494A"/>
<path d="M17.6615 12.6736C19.2274 11.5211 22.061 9.81524 24.3344 9.33116C26.6077 8.84708 27.9798 9.33116 29.1452 10.0688C30.3107 10.8065 31.0072 12.0973 31.3043 12.7778C31.6265 13.5412 31.8321 14.3496 31.914 15.1752C31.9704 15.6651 31.9744 16.1597 31.9259 16.6505C32.0588 16.0938 32.1426 15.5264 32.1763 14.9548C32.4204 11.2822 29.754 7.53223 25.7933 7.53223C21.8325 7.53223 17.1551 11.1744 16.9266 11.3127C16.7438 11.4252 15.6743 12.1637 15.2812 12.4394C15.5619 12.716 15.9568 13.0996 16.4193 13.5551C16.6926 13.3689 17.093 13.0922 17.6615 12.6736Z" fill="url(#paint2_linear_2006_145)"/>
<path d="M36.2328 22.421C35.5143 23.6197 34.0536 25.4333 31.719 25.4333C28.0626 25.4333 23.2792 20.3463 23.005 20.0697C22.8276 19.8908 19.5653 16.6581 17.2124 14.3382L16.4153 13.5526C15.9528 13.0971 15.5579 12.7108 15.2773 12.4369L15.2489 12.4093L14.8339 12.0109L14.8239 12.0017C14.5496 11.7712 9.56786 6.74596 5.33288 6.83817C1.09791 6.93037 0.177419 11.7703 0.107034 12.3401C0.015625 13.0777 0.015625 13.9998 0.015625 15.0602C0.015625 13.1847 1.22314 8.74407 4.98187 8.74407C8.74061 8.74407 12.7288 11.9943 17.642 16.9504L17.5588 16.884C18.4821 17.8061 20.1302 19.4833 20.4611 19.7931C20.887 20.1924 23.1576 22.3905 25.016 23.9885C26.8743 25.5864 29.5563 27.0617 31.6587 26.8164C33.7611 26.5712 34.9722 24.8414 35.6039 23.8963C36.2053 22.9973 36.9275 21.1227 37.1085 20.658C37.0234 20.8673 36.4997 21.9738 36.2328 22.421Z" fill="url(#paint3_linear_2006_145)"/>
<path d="M34.8901 5.79321C33.0007 3.73333 31.2338 3.07314 29.4815 3.01136C27.7292 2.94958 26.6332 3.2723 24.9266 3.96385C23.22 4.65539 20.6916 6.66917 19.8991 7.28326C19.1066 7.89735 16.8826 9.98858 16.4868 10.3878C16.1559 10.7216 15.1568 11.6962 14.8359 12.0107C14.8826 12.0521 15.0288 12.1951 15.2509 12.409L15.2793 12.4366C15.676 12.16 16.7418 11.4224 16.9246 11.3099C17.1532 11.1716 21.8305 7.52945 25.7913 7.52945C29.752 7.52945 32.4184 11.2795 32.1744 14.952C32.142 15.5244 32.0594 16.0928 31.9276 16.6505C31.3279 19.0838 29.8023 20.0879 27.6688 20.0879C25.0938 20.0879 20.4475 16.5988 19.9292 16.23C19.4859 15.9146 17.7153 14.6874 17.2144 14.3407C19.5673 16.6606 22.8296 19.8933 23.007 20.0722C23.2812 20.3488 28.0646 25.4358 31.721 25.4358C34.0556 25.4358 35.4688 23.7761 36.1891 22.5774C36.3116 22.3331 36.4816 21.9975 36.7128 21.5374C37.4999 20.1146 37.998 17.4305 37.998 14.5574C37.998 11.6842 36.7796 7.85217 34.8901 5.79321Z" fill="#7CC144"/>
</g>
</g>
<defs>
<linearGradient id="paint0_linear_2006_145" x1="6.31047" y1="15.8162" x2="11.3649" y2="15.1846" gradientUnits="userSpaceOnUse">
<stop stop-color="#448A40"/>
<stop offset="1" stop-color="#58A745"/>
</linearGradient>
<linearGradient id="paint1_linear_2006_145" x1="-0.304306" y1="14.9975" x2="14.3367" y2="14.9975" gradientUnits="userSpaceOnUse">
<stop stop-color="#34783B"/>
<stop offset="1" stop-color="#214720"/>
</linearGradient>
<linearGradient id="paint2_linear_2006_145" x1="16.5994" y1="12.0683" x2="31.8377" y2="12.1634" gradientUnits="userSpaceOnUse">
<stop stop-color="#509E44"/>
<stop offset="1" stop-color="#3D843F"/>
</linearGradient>
<linearGradient id="paint3_linear_2006_145" x1="0.015625" y1="16.8398" x2="37.1085" y2="16.8398" gradientUnits="userSpaceOnUse">
<stop stop-color="#4B9A44"/>
<stop offset="0.07" stop-color="#54A445"/>
<stop offset="0.1" stop-color="#5BAB46"/>
<stop offset="0.17" stop-color="#5BAB46"/>
<stop offset="0.6" stop-color="#5BAB46"/>
<stop offset="0.68" stop-color="#56A544"/>
<stop offset="0.81" stop-color="#49933F"/>
<stop offset="0.95" stop-color="#347537"/>
<stop offset="1" stop-color="#2B6934"/>
</linearGradient>
<clipPath id="clip0_2006_145">
<rect width="152" height="30" fill="white"/>
</clipPath>
<clipPath id="clip1_2006_145">
<rect width="38" height="23.8857" fill="white" transform="translate(0 3)"/>
</clipPath>
</defs>
</svg>
