<svg width="173" height="28" viewBox="0 0 173 28" fill="none" xmlns="http://www.w3.org/2000/svg">
<g clip-path="url(#clip0_393_4862)">
<mask id="mask0_393_4862" style="mask-type:luminance" maskUnits="userSpaceOnUse" x="53" y="1" width="120" height="22">
<path fill-rule="evenodd" clip-rule="evenodd" d="M53.3096 1.09668H172.999V22.6988H53.3096V1.09668Z" fill="white"/>
</mask>
<g mask="url(#mask0_393_4862)">
<path fill-rule="evenodd" clip-rule="evenodd" d="M87.1194 13.6602V17.0444C86.5118 18.7689 85.0049 19.9896 83.241 19.9896C80.9416 19.9896 79.0771 17.9138 79.0771 15.3527C79.0771 12.7922 80.9416 10.7157 83.241 10.7157C85.0049 10.7157 86.5118 11.9364 87.1194 13.6602ZM108.601 11.1916H112.914V8.54212H108.601V3.81543H105.398V17.6577C105.398 20.7164 107.094 23.3468 112.172 22.0024V19.3631C109.638 20.176 108.601 19.2169 108.601 17.6577V11.1916ZM53.3101 22.1657C53.6914 14.7609 54.3813 8.15281 55.8726 1.09473H59.7027L63.8204 16.6138L67.9381 1.09473H71.7675C73.2588 8.15281 73.9494 14.7609 74.3307 22.1657H71.113C70.8866 16.5656 70.4319 11.359 69.5123 6.16807L65.8697 19.979H61.7704L58.1285 6.16807C57.2089 11.359 56.7535 16.5656 56.5278 22.1657H53.3101ZM101.484 12.2213C99.9372 9.88102 95.0086 10.227 95.4036 12.2586C95.5714 13.1178 97.3353 13.4869 98.7307 13.7968C101.479 14.4086 104.172 15.56 104.172 18.1306C104.172 20.929 101.443 22.4169 98.9713 22.6561C95.5279 22.9899 92.2796 21.2124 91.3457 17.7215L94.104 16.9847C94.6253 18.9341 96.7874 19.9754 98.6709 19.9754C102.13 19.9754 102.09 17.4659 98.0429 16.566C95.2214 15.9379 92.3428 14.9197 92.3428 12.2858C92.3428 9.3325 95.6469 8.04785 98.1421 8.04785C100.135 8.04785 102.261 8.75815 103.647 10.4105L101.484 12.2213ZM116.357 13.5495H123.629C123.078 11.7578 121.658 10.6621 119.993 10.6621C118.327 10.6621 116.907 11.7578 116.357 13.5495ZM119.992 8.08203C123.814 8.08203 126.913 11.3378 126.913 15.3535C126.913 15.6288 126.897 15.8994 126.87 16.1672H116.191C116.973 20.8429 122.275 21.1922 124.013 17.1303L126.724 18.6121C125.486 20.9917 122.937 22.6251 119.992 22.6251C116.17 22.6251 113.071 19.3693 113.071 15.3535C113.071 11.3378 116.17 8.08203 119.992 8.08203ZM128.846 22.167H132.048V14.4958C132.048 11.624 134.055 10.3074 136.578 11.7144L138.024 8.73936C136.183 7.68173 133.553 7.8068 132.048 9.66988V8.53884H128.846V22.167ZM160.828 1.83199C161.923 1.83199 162.81 2.71901 162.81 3.81402C162.81 4.90835 161.923 5.79604 160.828 5.79604C159.734 5.79604 158.846 4.90835 158.846 3.81402C158.846 2.71901 159.734 1.83199 160.828 1.83199ZM168.685 17.6577V11.1916H173V8.54212H168.685V3.81543H165.483V17.6577C165.483 20.7164 167.179 23.3468 172.258 22.0024V19.3631C169.723 20.176 168.685 19.2169 168.685 17.6577ZM159.228 22.1646H162.43V8.53711H159.228V22.1646ZM142.509 22.1657H145.711V14.5856C146.745 13.5089 147.745 12.4234 148.724 11.3209L154.484 22.1657H158.111L150.969 8.72105C153 6.30265 154.966 3.78433 156.972 1.09473H152.978C150.618 4.24925 148.245 7.18491 145.711 9.96695V1.09473H142.509V22.1657ZM87.1186 22.1676H90.3207V8.53947H87.1186V10.2156C85.9264 8.89768 84.2788 8.08203 82.4585 8.08203C78.8214 8.08203 75.8735 11.3378 75.8735 15.3535C75.8735 19.3693 78.8214 22.6251 82.4585 22.6251C84.2788 22.6251 85.9264 21.8094 87.1186 20.4915V22.1676Z" fill="white"/>
</g>
<g clip-path="url(#clip1_393_4862)">
<path d="M41.7754 21.1064C41.8264 20.9815 41.8513 20.9102 41.8513 20.9102L41.7754 21.1064Z" fill="white"/>
<path d="M9.90571 14.6158C8.41069 14.7995 7.73444 14.2097 7.33078 13.7762C7.17536 13.6191 7.04827 13.4359 6.9552 13.2347C6.53905 14.3408 6.85116 15.5792 7.58775 16.1732C9.04428 17.3528 13.3858 15.4763 16.6078 13.4813C16.0387 13.1382 15.4291 12.7961 14.8048 12.4844C13.5356 13.3397 11.3654 14.4374 9.90571 14.6158Z" fill="white"/>
<path d="M16.6069 13.4849L16.634 13.5007C17.7911 14.2051 18.9072 14.976 19.9767 15.8095L20.0714 15.885C14.4793 10.2442 9.94121 6.54492 5.66214 6.54492C1.38306 6.54492 0.00976562 11.598 0.00976562 13.7326C0.00976562 19.1194 3.11321 20.7807 5.00358 20.7807C6.89395 20.7807 9.02672 19.3996 10.3272 18.4551C11.4716 17.6156 15.6571 14.2521 16.6069 13.4849C13.3817 15.4789 9.02776 17.3081 7.57019 16.1285C6.83152 15.5303 6.57039 14.3066 6.96157 13.2236C7.36004 12.1196 8.43579 11.1614 10.3792 11.1614C11.713 11.1614 13.2923 11.7292 14.7748 12.4712" fill="white"/>
<path d="M17.3477 10.7148L17.3807 10.7471L17.3477 10.7148Z" fill="white"/>
<path d="M20.0978 11.0177C21.88 9.70593 25.1051 7.76445 27.6926 7.21349C30.28 6.66253 31.8416 7.21349 33.1681 8.05305C34.4945 8.89261 35.2873 10.3618 35.6254 11.1363C35.9922 12.0052 36.2261 12.9252 36.3194 13.8649C36.3836 14.4225 36.3881 14.9854 36.3329 15.544C36.4841 14.9104 36.5795 14.2646 36.618 13.6141C36.8957 9.43412 33.861 5.16602 29.353 5.16602C24.8451 5.16602 19.5214 9.31134 19.2613 9.46875C19.0533 9.59679 17.836 10.4374 17.3887 10.7512C17.7081 11.066 18.1575 11.5026 18.6839 12.021C18.995 11.809 19.4507 11.4942 20.0978 11.0177Z" fill="white"/>
<path d="M41.2306 22.1092C40.4129 23.4735 38.7503 25.5377 36.0932 25.5377C31.9317 25.5377 26.4874 19.7479 26.1753 19.4331C25.9734 19.2295 22.2603 15.5501 19.5824 12.9097L18.6752 12.0156C18.1488 11.4972 17.6993 11.0574 17.3799 10.7458L17.3477 10.7143L16.8753 10.2609L16.8639 10.2504C16.5518 9.98805 10.8817 4.26855 6.06165 4.3735C1.24157 4.47844 0.193913 9.987 0.113803 10.6356C0.00976562 11.4751 0.00976562 12.5246 0.00976562 13.7314C0.00976562 11.5969 1.38411 6.54271 5.66214 6.54271C9.94018 6.54271 14.4793 10.242 20.0714 15.8828L19.9767 15.8073C21.0275 16.8567 22.9033 18.7656 23.2799 19.1183C23.7647 19.5727 26.349 22.0746 28.4641 23.8933C30.5792 25.712 33.6317 27.3911 36.0245 27.1119C38.4174 26.8328 39.7959 24.864 40.5148 23.7883C41.1994 22.7651 42.0213 20.6316 42.2273 20.1026C42.1305 20.3409 41.5344 21.6002 41.2306 22.1092Z" fill="white"/>
<path d="M39.6999 3.18541C37.5494 0.840942 35.5383 0.0895375 33.5439 0.0192244C31.5495 -0.0510886 30.3021 0.316218 28.3597 1.1033C26.4173 1.89039 23.5397 4.18239 22.6377 4.88132C21.7356 5.58025 19.2044 7.9604 18.7539 8.41481C18.3773 8.79471 17.2402 9.90398 16.875 10.2618C16.9281 10.3091 17.0945 10.4717 17.3473 10.7152L17.3796 10.7467C17.8311 10.4319 19.0442 9.59229 19.2523 9.46426C19.5124 9.30684 24.836 5.16152 29.3439 5.16152C33.8519 5.16152 36.8867 9.42963 36.6089 13.6096C36.572 14.261 36.478 14.9079 36.328 15.5427C35.6455 18.3122 33.9091 19.455 31.4809 19.455C28.5501 19.455 23.2619 15.4839 22.672 15.0641C22.1674 14.7052 20.1522 13.3084 19.5821 12.9138C22.26 15.5542 25.9731 19.2336 26.1749 19.4372C26.4871 19.752 31.9313 25.5418 36.0929 25.5418C38.75 25.5418 40.3584 23.6528 41.1782 22.2885C41.3176 22.0104 41.5112 21.6284 41.7744 21.1047C42.6701 19.4854 43.2371 16.4305 43.2371 13.1604C43.2371 9.89034 41.8503 5.52883 39.6999 3.18541Z" fill="white"/>
</g>
</g>
<defs>
<clipPath id="clip0_393_4862">
<rect width="173" height="27.9989" fill="white"/>
</clipPath>
<clipPath id="clip1_393_4862">
<rect width="43.25" height="27.1857" fill="white"/>
</clipPath>
</defs>
</svg>
